<svg width="25" height="37" viewBox="0 0 25 37" fill="none" xmlns="http://www.w3.org/2000/svg">
<path d="M11.8247 6.72363H10.7261C10.9263 5.83496 11.3096 5.15137 11.876 4.67285C12.4424 4.19434 13.1113 3.95508 13.8828 3.95508C14.4443 3.95508 14.9668 4.08447 15.4502 4.34326C15.9385 4.59717 16.3145 4.94141 16.5781 5.37598C16.8467 5.81055 16.981 6.26465 16.981 6.73828C16.981 7.66602 16.5195 8.40088 15.5967 8.94287C16.1143 9.15283 16.5391 9.46045 16.8711 9.86572C17.3398 10.437 17.5742 11.0767 17.5742 11.7847C17.5742 12.395 17.4131 12.9785 17.0908 13.5352C16.7686 14.0869 16.3291 14.5142 15.7725 14.8169C15.2158 15.1196 14.5933 15.271 13.9048 15.271C12.9771 15.271 12.2031 15.0049 11.583 14.4727C10.9629 13.9355 10.5576 13.1494 10.3672 12.1143H11.4219C11.6074 12.8125 11.8735 13.3179 12.2202 13.6304C12.6646 14.0259 13.231 14.2236 13.9194 14.2236C14.7007 14.2236 15.3281 13.9893 15.8018 13.5205C16.2754 13.0518 16.5122 12.5024 16.5122 11.8726C16.5122 11.4526 16.3926 11.0596 16.1533 10.6934C15.9189 10.3271 15.6016 10.0513 15.2012 9.86572C14.8057 9.68018 14.1904 9.56543 13.3555 9.52148V8.53271C13.8486 8.53271 14.2979 8.44727 14.7031 8.27637C15.1084 8.10059 15.4014 7.87842 15.582 7.60986C15.7676 7.34131 15.8604 7.04834 15.8604 6.73096C15.8604 6.26221 15.6724 5.85693 15.2964 5.51514C14.9253 5.17334 14.4541 5.00244 13.8828 5.00244C13.4189 5.00244 13.0186 5.13428 12.6816 5.39795C12.3447 5.65674 12.0591 6.09863 11.8247 6.72363Z" fill="#FDDE3B"/>
<g clip-path="url(#clip0_0_666)">
<path d="M9 34.0547C9.55228 34.0547 10 33.607 10 33.0547C10 32.5024 9.55228 32.0547 9 32.0547C8.44772 32.0547 8 32.5024 8 33.0547C8 33.607 8.44772 34.0547 9 34.0547Z" stroke="white" stroke-width="2" stroke-linecap="round" stroke-linejoin="round"/>
<path d="M20 34.0547C20.5523 34.0547 21 33.607 21 33.0547C21 32.5024 20.5523 32.0547 20 32.0547C19.4477 32.0547 19 32.5024 19 33.0547C19 33.607 19.4477 34.0547 20 34.0547Z" stroke="white" stroke-width="2" stroke-linecap="round" stroke-linejoin="round"/>
<path d="M1 13.0547H5L7.68 26.4447C7.77144 26.9051 8.02191 27.3187 8.38755 27.613C8.75318 27.9073 9.2107 28.0637 9.68 28.0547L14.54 24.0547L19.4 28.0547C19.8693 28.0637 20.3268 27.9073 20.6925 27.613C21.0581 27.3187 21.3086 26.9051 21.4 26.4447L23 18.0547" stroke="white" stroke-width="2" stroke-linecap="round" stroke-linejoin="round"/>
</g>
<defs>
<clipPath id="clip0_0_666">
<rect width="24" height="24" fill="white" transform="translate(0 12.0547)"/>
</clipPath>
</defs>
</svg>
