<svg width="19" height="17" viewBox="0 0 19 17" fill="none" xmlns="http://www.w3.org/2000/svg">
<path d="M1.72727 9.01389V7.77273C1.72727 3.48679 5.21412 0 9.5 0C13.7859 0 17.2727 3.48679 17.2727 7.77273V9.01389C18.3208 9.8025 19 11.0564 19 12.4661C19 14.8471 17.0629 16.7843 14.6818 16.7843C14.2049 16.7843 13.8182 16.3976 13.8182 15.9206V9.01153C13.8182 8.53457 14.2049 8.14789 14.6818 8.14789C14.9775 8.14789 15.2663 8.17789 15.5455 8.23483V7.77278C15.5455 4.43932 12.8335 1.72733 9.5 1.72733C6.16654 1.72733 3.45455 4.43932 3.45455 7.77278V8.23483C3.73367 8.17789 4.02247 8.14789 4.31818 8.14789C4.79514 8.14789 5.18182 8.53457 5.18182 9.01153V15.9206C5.18182 16.3976 4.79514 16.7843 4.31818 16.7843C1.93714 16.7843 0 14.8471 0 12.4661C0 11.0564 0.679163 9.8025 1.72727 9.01389Z" fill="white"/>
</svg>
