<svg width="22" height="22" viewBox="0 0 22 22" fill="none" xmlns="http://www.w3.org/2000/svg">
<path d="M21.9011 21.9064V21.9055H21.9065V13.8713C21.9065 9.94092 21.0604 6.91327 16.4655 6.91327C14.2566 6.91327 12.7743 8.12542 12.1691 9.2746H12.1052V7.2802H7.7486V21.9055H12.2851V14.6636C12.2851 12.7568 12.6465 10.913 15.0078 10.913C17.3345 10.913 17.3692 13.0891 17.3692 14.7859V21.9064H21.9011Z" fill="white"/>
<path d="M0.361511 7.28113H4.90344V21.9064H0.361511V7.28113Z" fill="white"/>
<path d="M2.6306 0C1.17838 0 0 1.17838 0 2.6306C0 4.08281 1.17838 5.28584 2.6306 5.28584C4.08281 5.28584 5.26119 4.08281 5.26119 2.6306C5.26028 1.17838 4.0819 0 2.6306 0V0Z" fill="white"/>
</svg>
